/* XPM */
static char * stop_xpm[] = {
"64 64 135 2",
"  	c None",
". 	c #FF5959",
"+ 	c #FFA7A7",
"@ 	c #FFE4E4",
"# 	c #FFE5E5",
"$ 	c #FF7777",
"% 	c #FFF7F7",
"& 	c #FFFFFF",
"* 	c #FF5A5A",
"= 	c #FFD0D0",
"- 	c #FFE6E6",
"; 	c #FFA1A1",
"> 	c #FF8F8F",
", 	c #FFFDFD",
"' 	c #FF9191",
") 	c #FF5D5D",
"! 	c #FFE3E3",
"~ 	c #FFD2D2",
"{ 	c #FFA9A9",
"] 	c #FFF8F8",
"^ 	c #FF7979",
"/ 	c #FF6868",
"( 	c #FFF0F0",
"_ 	c #FFBDBD",
": 	c #FFC1C1",
"< 	c #FFEEEE",
"[ 	c #FF6565",
"} 	c #FF7C7C",
"| 	c #FFF9F9",
"1 	c #FFFEFE",
"2 	c #FFA5A5",
"3 	c #FFD5D5",
"4 	c #FFE0E0",
"5 	c #FF5C5C",
"6 	c #FF9595",
"7 	c #FFFCFC",
"8 	c #FF8A8A",
"9 	c #FF5E5E",
"0 	c #FFE7E7",
"a 	c #FFCDCD",
"b 	c #FFAFAF",
"c 	c #FFF6F6",
"d 	c #FF7373",
"e 	c #FF6C6C",
"f 	c #FFF3F3",
"g 	c #FFB7B7",
"h 	c #FFC6C6",
"i 	c #FFEBEB",
"j 	c #FF6161",
"k 	c #FF8282",
"l 	c #FFFBFB",
"m 	c #FF9E9E",
"n 	c #FF5B5B",
"o 	c #FFDADA",
"p 	c #FFDBDB",
"q 	c #FF9C9C",
"r 	c #FF8484",
"s 	c #FFEAEA",
"t 	c #FFC7C7",
"u 	c #FFB6B6",
"v 	c #FFF4F4",
"w 	c #FF6E6E",
"x 	c #FF7474",
"y 	c #FF9494",
"z 	c #FF7B7B",
"A 	c #FF6262",
"B 	c #FF6D6D",
"C 	c #FF7575",
"D 	c #FF9999",
"E 	c #FF6969",
"F 	c #FF6F6F",
"G 	c #FF7878",
"H 	c #FF6363",
"I 	c #FF7272",
"J 	c #FFF5F5",
"K 	c #FFB0B0",
"L 	c #FFD4D4",
"M 	c #FFEDED",
"N 	c #FFFAFA",
"O 	c #FFCCCC",
"P 	c #FF5F5F",
"Q 	c #FFBEBE",
"R 	c #FFC3C3",
"S 	c #FFB2B2",
"T 	c #FF8787",
"U 	c #FFB3B3",
"V 	c #FFA2A2",
"W 	c #FF7676",
"X 	c #FFF1F1",
"Y 	c #FFC8C8",
"Z 	c #FFA6A6",
"` 	c #FFDEDE",
" .	c #FF8181",
"..	c #FFDCDC",
"+.	c #FFADAD",
"@.	c #FFB1B1",
"#.	c #FFD1D1",
"$.	c #FF8989",
"%.	c #FF9797",
"&.	c #FFD9D9",
"*.	c #FFD3D3",
"=.	c #FF6767",
"-.	c #FFABAB",
";.	c #FFC5C5",
">.	c #FF7D7D",
",.	c #FFDFDF",
"'.	c #FFD6D6",
").	c #FFBFBF",
"!.	c #FFE1E1",
"~.	c #FFECEC",
"{.	c #FF8383",
"].	c #FFD8D8",
"^.	c #FFCECE",
"/.	c #FF9A9A",
"(.	c #FF7E7E",
"_.	c #FF6464",
":.	c #FF7171",
"<.	c #FF6060",
"[.	c #FFD7D7",
"}.	c #FF6666",
"|.	c #FFE9E9",
"1.	c #FFC4C4",
"2.	c #FF9090",
"3.	c #FF9F9F",
"4.	c #FFF2F2",
"5.	c #FFDDDD",
"6.	c #FF7A7A",
"7.	c #FF6A6A",
"8.	c #FFB4B4",
"9.	c #FFA0A0",
"0.	c #FF6B6B",
"a.	c #FF8888",
"b.	c #FF8080",
"c.	c #FFC2C2",
"d.	c #FF9696",
"                                                                                                                                ",
"                                                                                                                                ",
"                                                                                                                                ",
"                                                                                                                                ",
"                                . . . . . . . . . . . . . . . . . . . . . . . . . . . . . . . .                                 ",
"                              . . . . . . . . . . . . . . . . . . . . . . . . . . . . . . . . . .                               ",
"                            . . . . . . . . . . . . . . . . . . . . . . . . . . . . . . . . . . . .                             ",
"                            . . . + @ # # # # # # # # # # # # # # # # # # # # # # # # # # @ + . . .                             ",
"                          . . . $ % & & & & & & & & & & & & & & & & & & & & & & & & & & & & % $ . . .                           ",
"                        . . . * = & - ; ; ; ; ; ; ; ; ; ; ; ; ; ; ; ; ; ; ; ; ; ; ; ; ; ; - & = * . . .                         ",
"                        . . . > , , ' . . . . . . . . . . . . . . . . . . . . . . . . . . ' , , > . . .                         ",
"                      . . . ) ! & ~ * . . . . . . . . . . . . . . . . . . . . . . . . . . * ~ & ! ) . . .                       ",
"                      . . . { & ] ^ . . . . . . . . . . . . . . . . . . . . . . . . . . . . ^ ] & { . . .                       ",
"                    . . . / ( & _ . . . . . . . . . . . . . . . . . . . . . . . . . . . . . . _ & ( / . . .                     ",
"                  . . . . : & < [ . . . . . . . . . . . . . . . . . . . . . . . . . . . . . . [ < & : . . . .                   ",
"                  . . . } | 1 2 . . . . . . . . . . . . . . . . . . . . . . . . . . . . . . . . 2 1 | } . . .                   ",
"                . . . * 3 & 4 5 . . . . . . . . . . . . . . . . . . . . . . . . . . . . . . . . 5 4 & 3 * . . .                 ",
"                . . . 6 1 7 8 . . . . . . . . . . . . . . . . . . . . . . . . . . . . . . . . . . 8 7 1 6 . . .                 ",
"              . . . 9 0 & a . . . . . . . . . . . . . . . . . . . . . . . . . . . . . . . . . . . . a & 0 9 . . .               ",
"              . . . b & c d . . . . . . . . . . . . . . . . . . . . . . . . . . . . . . . . . . . . d c & b . . .               ",
"            . . . e f & g . . . . . . . . . . . . . . . . . . . . . . . . . . . . . . . . . . . . . . g & f e . . .             ",
"          . . . . h & i j . . . . . . . . . . . . . . . . . . . . . . . . . . . . . . . . . . . . . . j i & h . . . .           ",
"          . . . k l 1 m . . . . . . . . . . . . . . . . . . . . . . . . . . . . . . . . . . . . . . . . m 1 l k . . .           ",
"        . . . n o & p n . . . . . . . . . . . . . . . . . . . . . . . . . . . . . . . . . . . . . . . . n p & o n . . .         ",
"        . . . q 1 l r . . . . . . . . . . . . . . . . . . . . . . . . . . . . . . . . . . . . . . . . . . r l 1 q . . .         ",
"      . . . j s & t . . . . . . . . . . . . . . . . . . . . . . . . . . . . . . . . . . . . . . . . . . . . t & s j . . .       ",
"      . . . u & v w . . . . . * x y z 9 . . A z z z z z z B . . . * C D y E . . . . . F z z G H * . . . . . w v & u . . .       ",
"    . . . I J & K . . . . . H L , & 1 M + . a 1 1 1 1 1 1 % [ . z p , & & | t H . . d | 1 1 1 N p G . . . . . K & J I . . .     ",
"  . . . . O & 0 P . . . . . Q 1 R D S s 4 * T U U - 1 g U V * W X l Y m Z ` & o ) .  .1 ..+.@.#., # 5 . . . . P 0 & O . . . .   ",
"  . . . $.7 1 %.. . . . . . &.l [ . . 5 9 . . . . *., =.. . . #.1 -.. . . ) &.& Z .  .1 ;.. . * L 1 >.. . . . . %.1 7 $.. . .   ",
". . . n ,.& '.* . . . . . . ).& !.Z w * . . . . . *., =.. . j % ~.5 . . . . {.1 ]..  .1 ;.. . . ^.1  .. . . . . * '.& ,.n . . . ",
". . . /.1 N (.. . . . . . . _.= 7 & l o r . . . . *., =.. . :., ].. . . . . <.| - *  .1 = $.> g N i 9 . . . . . . (.N 1 /.. . . ",
". . . /.1 N (.. . . . . . . . . I -.[.7 X }.. . . *., =.. . }.l - * . . . . I , ` .  .1 & 1 1 1 |.T . . . . . . . (.N 1 /.. . . ",
". . . n ,.& '.* . . . . . . A 5 . . * 1.& 2.. . . *., =.. . * ,., y . . . . : & u .  .1 ].V 3.{.) . . . . . . . * '.& ,.n . . . ",
"  . . . $.7 1 %.. . . . . P 4.@ %.H :.5., 6.. . . *., =.. . . ' l f Z 7.C _ 7 i }..  .1 ;.. . . . . . . . . . . %.1 7 $.. . .   ",
"  . . . . O & 0 P . . . . * 8.c 1 7 , , : * . . . = 7 [ . . . . 9.v & , , 1 ! 6.. . >.1 : . . . . . . . . . . P 0 & O . . . .   ",
"    . . . I J & K . . . . . . 0.2 ).U a.* . . . . b.3.* . . . . . 7.+ c._ d.) . . . n + x . . . . . . . . . . K & J I . . .     ",
"      . . . u & v w . . . . . . . . . . . . . . . . . . . . . . . . . . . . . . . . . . . . . . . . . . . . w v & u . . .       ",
"      . . . j s & t . . . . . . . . . . . . . . . . . . . . . . . . . . . . . . . . . . . . . . . . . . . . t & s j . . .       ",
"        . . . q 1 l r . . . . . . . . . . . . . . . . . . . . . . . . . . . . . . . . . . . . . . . . . . r l 1 q . . .         ",
"        . . . n o & p n . . . . . . . . . . . . . . . . . . . . . . . . . . . . . . . . . . . . . . . . n p & o n . . .         ",
"          . . . k l 1 m . . . . . . . . . . . . . . . . . . . . . . . . . . . . . . . . . . . . . . . . m 1 l k . . .           ",
"          . . . . h & i j . . . . . . . . . . . . . . . . . . . . . . . . . . . . . . . . . . . . . . j i & h . . . .           ",
"            . . . e f & g . . . . . . . . . . . . . . . . . . . . . . . . . . . . . . . . . . . . . . g & f e . . .             ",
"              . . . b & c d . . . . . . . . . . . . . . . . . . . . . . . . . . . . . . . . . . . . d c & b . . .               ",
"              . . . 9 0 & a . . . . . . . . . . . . . . . . . . . . . . . . . . . . . . . . . . . . a & 0 9 . . .               ",
"                . . . 6 1 7 8 . . . . . . . . . . . . . . . . . . . . . . . . . . . . . . . . . . 8 7 1 6 . . .                 ",
"                . . . * 3 & 4 5 . . . . . . . . . . . . . . . . . . . . . . . . . . . . . . . . 5 4 & 3 * . . .                 ",
"                  . . . } | 1 2 . . . . . . . . . . . . . . . . . . . . . . . . . . . . . . . . 2 1 | } . . .                   ",
"                  . . . . : & < [ . . . . . . . . . . . . . . . . . . . . . . . . . . . . . . [ < & : . . . .                   ",
"                    . . . / ( & _ . . . . . . . . . . . . . . . . . . . . . . . . . . . . . . _ & ( / . . .                     ",
"                      . . . { & ] ^ . . . . . . . . . . . . . . . . . . . . . . . . . . . . ^ ] & { . . .                       ",
"                      . . . ) ! & ~ * . . . . . . . . . . . . . . . . . . . . . . . . . . * ~ & ! ) . . .                       ",
"                        . . . > , , ' . . . . . . . . . . . . . . . . . . . . . . . . . . ' , , > . . .                         ",
"                        . . . * = & - ; ; ; ; ; ; ; ; ; ; ; ; ; ; ; ; ; ; ; ; ; ; ; ; ; ; - & = * . . .                         ",
"                          . . . $ % & & & & & & & & & & & & & & & & & & & & & & & & & & & & % $ . . .                           ",
"                            . . . + @ # # # # # # # # # # # # # # # # # # # # # # # # # # @ + . . .                             ",
"                            . . . . . . . . . . . . . . . . . . . . . . . . . . . . . . . . . . . .                             ",
"                              . . . . . . . . . . . . . . . . . . . . . . . . . . . . . . . . . .                               ",
"                                . . . . . . . . . . . . . . . . . . . . . . . . . . . . . . . .                                 ",
"                                                                                                                                ",
"                                                                                                                                ",
"                                                                                                                                ",
"                                                                                                                                "};
