/* XPM */
static char * player_xpm[] = {
"32 48 38 1",
" 	c None",
".	c #33150D",
"+	c #4C2013",
"@	c #652A1A",
"#	c #833721",
"$	c #3E3300",
"%	c #6B5B08",
"&	c #A04329",
"*	c #FAE888",
"=	c #D05735",
"-	c #B94D2F",
";	c #460923",
">	c #ECC813",
",	c #9B830B",
"'	c #EA4D49",
")	c #A11E36",
"!	c #C2C2C2",
"~	c #7D7D7D",
"{	c #0045BE",
"]	c #EB8A63",
"^	c #F1F1F1",
"/	c #321D15",
"(	c #BE7050",
"_	c #FF966C",
":	c #292939",
"<	c #8888A0",
"[	c #B4B4CC",
"}	c #770027",
"|	c #C1A63C",
"1	c #121518",
"2	c #2A343C",
"3	c #3B444B",
"4	c #58646F",
"5	c #D2D2F4",
"6	c #545469",
"7	c #C23B54",
"8	c #282E33",
"9	c #343C42",
"            ..  ++++  ..        ",
"            ..  ++++  ..        ",
"          ..@@..@@##$$%%..++++  ",
"          ..@@..@@##$$%%..++++  ",
"        ..@@##%%%%&&%%**%%==--++",
"        ..@@##%%%%&&%%**%%==--++",
"    ....##&&&&%%**%%$$**%%##..  ",
"    ....##&&&&%%**%%$$**%%##..  ",
"  ..++##%%%%%%@@%%**%%**;;--&&..",
"  ..++##%%%%%%@@%%**%%**;;--&&..",
"    ..++$$>>**%%**,,**>>'';;==++",
"    ..++$$>>**%%**,,**>>'';;==++",
"      ..##$$,,**,,$$$$,,));;--++",
"      ..##$$,,**,,$$$$,,));;--++",
"    ..++@@##$$$$$$!~{{$$;;  ++  ",
"    ..++@@##$$$$$$!~{{$$;;  ++  ",
"  $$$$$$$$$$..]]]]^^{{]]//      ",
"  $$$$$$$$$$..]]]]^^{{]]//      ",
"  $$>>****>>$$((]]]]]]]]__//    ",
"  $$>>****>>$$((]]]]]]]]__//    ",
"    ::<<[[<<>>::((]]]]]]//$$$$  ",
"    ::<<[[<<>>::((]]]]]]//$$$$  ",
"    }}::**>><<||////////$$::$$  ",
"    }}::**>><<||////////$$::$$  ",
"    }}11223311<<||>>**>><<::::  ",
"    }}11223311<<||>>**>><<::::  ",
"  }}::11224411[[55))''))55::    ",
"  }}::11224411[[55))''))55::    ",
"  }}$$**>>,,$$66||<<))<<||$$    ",
"  }}$$**>>,,$$66||<<))<<||$$    ",
"  }}77::55[[<<::<<||>>||$$<<::  ",
"  }}77::55[[<<::<<||>>||$$<<::  ",
"  }}77$$**>>,,$$||665566::||$$  ",
"  }}77$$**>>,,$$||665566::||$$  ",
"  }}771188994411$$>><<>>$$4411  ",
"  }}771188994411$$>><<>>$$4411  ",
"}}))77;;1111112233$$**$$1111    ",
"}}))77;;1111112233$$**$$1111    ",
"}}77}};;;;;;11223333113311;;    ",
"}}77}};;;;;;11223333113311;;    ",
"}}77}};;;;1122<<[[5511[[11;;    ",
"}}77}};;;;1122<<[[5511[[11;;    ",
";;77}};;;;::<<,,****$$**$$;;    ",
";;77}};;;;::<<,,****$$**$$;;    ",
"  ;;}};;;;$$,,>><<[[55::55::    ",
"  ;;}};;;;$$,,>><<[[55::55::    ",
"    ;;;;  $$$$$$::::::::::::    ",
"    ;;;;  $$$$$$::::::::::::    "};
