/* XPM */
static char * stone_bricks_xpm[] = {
"64 64 533 2",
"  	c #BEBEBD",
". 	c #B5B6B5",
"+ 	c #B3B5B3",
"@ 	c #B2B3B2",
"# 	c #B1B1B0",
"$ 	c #AFB0AE",
"% 	c #AEAEAD",
"& 	c #ACADAC",
"* 	c #ABACAB",
"= 	c #A9AAA9",
"- 	c #A8A9A8",
"; 	c #A7A8A7",
"> 	c #A6A7A6",
", 	c #A6A7A5",
"' 	c #A4A5A4",
") 	c #A3A4A3",
"! 	c #A3A3A2",
"~ 	c #A2A3A1",
"{ 	c #A1A2A1",
"] 	c #A0A1A0",
"^ 	c #9FA09F",
"/ 	c #9E9F9E",
"( 	c #9D9E9D",
"_ 	c #9D9E9C",
": 	c #9C9D9C",
"< 	c #9C9D9B",
"[ 	c #9B9C9B",
"} 	c #9B9C9A",
"| 	c #9A9B99",
"1 	c #999A99",
"2 	c #989998",
"3 	c #999A98",
"4 	c #9A9B9A",
"5 	c #9FA09E",
"6 	c #8A8B8A",
"7 	c #606160",
"8 	c #575857",
"9 	c #636462",
"0 	c #A0A0A0",
"a 	c #969896",
"b 	c #969796",
"c 	c #929391",
"d 	c #919190",
"e 	c #8F908E",
"f 	c #8E908E",
"g 	c #8E8F8E",
"h 	c #8D8F8D",
"i 	c #8B8D8B",
"j 	c #898B89",
"k 	c #888987",
"l 	c #868786",
"m 	c #868886",
"n 	c #878886",
"o 	c #858785",
"p 	c #848583",
"q 	c #828382",
"r 	c #808180",
"s 	c #7E7F7E",
"t 	c #7D7F7D",
"u 	c #797A78",
"v 	c #777977",
"w 	c #787978",
"x 	c #787A78",
"y 	c #747674",
"z 	c #747574",
"A 	c #747573",
"B 	c #757674",
"C 	c #717371",
"D 	c #727472",
"E 	c #737573",
"F 	c #70716F",
"G 	c #6F706E",
"H 	c #6E706E",
"I 	c #6D6F6D",
"J 	c #6E6F6D",
"K 	c #717270",
"L 	c #707270",
"M 	c #727371",
"N 	c #797A79",
"O 	c #7B7D7B",
"P 	c #7B7C7B",
"Q 	c #7E7F7D",
"R 	c #80817F",
"S 	c #616261",
"T 	c #4A4A49",
"U 	c #B4B5B4",
"V 	c #8F908F",
"W 	c #8F918F",
"X 	c #8D8E8D",
"Y 	c #848584",
"Z 	c #848684",
"` 	c #808280",
" .	c #828482",
"..	c #838583",
"+.	c #818381",
"@.	c #7F807E",
"#.	c #7C7D7C",
"$.	c #7F7F7E",
"%.	c #6F716F",
"&.	c #6C6E6C",
"*.	c #6B6D6B",
"=.	c #6A6B69",
"-.	c #696B69",
";.	c #686A68",
">.	c #686967",
",.	c #676967",
"'.	c #686A67",
").	c #666866",
"!.	c #696A68",
"~.	c #6A6C6A",
"{.	c #6E706D",
"].	c #767775",
"^.	c #7A7C7A",
"/.	c #797B79",
"(.	c #626362",
"_.	c #616160",
":.	c #3A3B3A",
"<.	c #484948",
"[.	c #B2B4B2",
"}.	c #8C8D8B",
"|.	c #8C8E8C",
"1.	c #80827F",
"2.	c #7C7C7B",
"3.	c #777876",
"4.	c #737472",
"5.	c #6D6E6C",
"6.	c #6C6D6C",
"7.	c #6A6B6A",
"8.	c #666865",
"9.	c #666765",
"0.	c #676966",
"a.	c #676866",
"b.	c #656765",
"c.	c #4F504F",
"d.	c #646563",
"e.	c #5B5C5A",
"f.	c #585958",
"g.	c #B1B2B1",
"h.	c #8B8C8A",
"i.	c #8A8B89",
"j.	c #868685",
"k.	c #858583",
"l.	c #838483",
"m.	c #818281",
"n.	c #7E807E",
"o.	c #7C7E7C",
"p.	c #7C7F7C",
"q.	c #7B7C7A",
"r.	c #6C6E6B",
"s.	c #646664",
"t.	c #636563",
"u.	c #626361",
"v.	c #656664",
"w.	c #6C6D6B",
"x.	c #707170",
"y.	c #4C4D4C",
"z.	c #424341",
"A.	c #414241",
"B.	c #B0B0AF",
"C.	c #919391",
"D.	c #888887",
"E.	c #858584",
"F.	c #7F817F",
"G.	c #7B7D7A",
"H.	c #787B78",
"I.	c #767876",
"J.	c #6B6C6A",
"K.	c #626462",
"L.	c #656764",
"M.	c #646663",
"N.	c #454645",
"O.	c #393A39",
"P.	c #AFAFAE",
"Q.	c #878786",
"R.	c #797C79",
"S.	c #767875",
"T.	c #717271",
"U.	c #60625F",
"V.	c #626461",
"W.	c #616361",
"X.	c #636562",
"Y.	c #686968",
"Z.	c #494A49",
"`.	c #5E5F5E",
" +	c #50514F",
".+	c #323332",
"++	c #ADAEAD",
"@+	c #8C8D8C",
"#+	c #848483",
"$+	c #7D7E7D",
"%+	c #777A77",
"&+	c #787A77",
"*+	c #6E6E6C",
"=+	c #5F615F",
"-+	c #606260",
";+	c #5D5F5D",
">+	c #616360",
",+	c #535453",
"'+	c #4F514F",
")+	c #393938",
"!+	c #757875",
"~+	c #6E6F6E",
"{+	c #5B5E5B",
"]+	c #5B5D5B",
"^+	c #5C5E5C",
"/+	c #5F615E",
"(+	c #616260",
"_+	c #5E605E",
":+	c #5E605D",
"<+	c #60615F",
"[+	c #5D5F5C",
"}+	c #424342",
"|+	c #AAABAA",
"1+	c #767976",
"2+	c #747774",
"3+	c #717370",
"4+	c #6F706F",
"5+	c #6A6C69",
"6+	c #5A5C5A",
"7+	c #5C5E5B",
"8+	c #5D5E5C",
"9+	c #5E5F5D",
"0+	c #5C5D5B",
"a+	c #5A5B59",
"b+	c #515250",
"c+	c #3C3C3B",
"d+	c #AAABA9",
"e+	c #848683",
"f+	c #7C7E7B",
"g+	c #7B7E7B",
"h+	c #757774",
"i+	c #727471",
"j+	c #5A5D5A",
"k+	c #585A58",
"l+	c #5A5C59",
"m+	c #5B5D5A",
"n+	c #595B58",
"o+	c #585A57",
"p+	c #565856",
"q+	c #575856",
"r+	c #575957",
"s+	c #525351",
"t+	c #565756",
"u+	c #A8A9A7",
"v+	c #818380",
"w+	c #797B78",
"x+	c #747673",
"y+	c #717471",
"z+	c #6D6D6C",
"A+	c #6C6C6A",
"B+	c #6B6C69",
"C+	c #595C59",
"D+	c #595B59",
"E+	c #575956",
"F+	c #515351",
"G+	c #545653",
"H+	c #555754",
"I+	c #555654",
"J+	c #565755",
"K+	c #555755",
"L+	c #515251",
"M+	c #444443",
"N+	c #A7A8A6",
"O+	c #757775",
"P+	c #606360",
"Q+	c #535553",
"R+	c #535552",
"S+	c #50524F",
"T+	c #4E514E",
"U+	c #525452",
"V+	c #525451",
"W+	c #565855",
"X+	c #505150",
"Y+	c #4B4C4B",
"Z+	c #464645",
"`+	c #A5A6A5",
" @	c #787977",
".@	c #686866",
"+@	c #696A67",
"@@	c #4D4F4C",
"#@	c #4E504D",
"$@	c #515350",
"%@	c #595A59",
"&@	c #696967",
"*@	c #676865",
"=@	c #585B58",
"-@	c #575A57",
";@	c #4F514E",
">@	c #4F524F",
",@	c #4C4E4C",
"'@	c #535452",
")@	c #4F504E",
"!@	c #3F3F3F",
"~@	c #3A3A3A",
"{@	c #7C7D7B",
"]@	c #6B6C6B",
"^@	c #6A6B68",
"/@	c #595A58",
"(@	c #535653",
"_@	c #505350",
":@	c #4D504D",
"<@	c #4B4E4B",
"[@	c #4B4D4A",
"}@	c #494C49",
"|@	c #4C4E4B",
"1@	c #4E504E",
"2@	c #585957",
"3@	c #4C4D4B",
"4@	c #3A3A39",
"5@	c #3D3E3D",
"6@	c #6B6B6A",
"7@	c #6A6A68",
"8@	c #484A47",
"9@	c #464945",
"0@	c #494B48",
"a@	c #545654",
"b@	c #3F403F",
"c@	c #9E9F9D",
"d@	c #7D7E7C",
"e@	c #545754",
"f@	c #474946",
"g@	c #464845",
"h@	c #4A4D4A",
"i@	c #4B4B4B",
"j@	c #5D5E5D",
"k@	c #9E9E9D",
"l@	c #5F625F",
"m@	c #4A4C49",
"n@	c #454844",
"o@	c #454744",
"p@	c #464946",
"q@	c #444544",
"r@	c #464746",
"s@	c #4D4F4D",
"t@	c #464846",
"u@	c #363736",
"v@	c #626562",
"w@	c #636463",
"x@	c #474A46",
"y@	c #494B49",
"z@	c #4A4C4A",
"A@	c #444543",
"B@	c #9B9D9B",
"C@	c #5E615E",
"D@	c #525552",
"E@	c #4C4F4C",
"F@	c #494C48",
"G@	c #474A47",
"H@	c #454845",
"I@	c #313231",
"J@	c #3E3E3D",
"K@	c #5F605E",
"L@	c #454644",
"M@	c #303130",
"N@	c #3E3F3E",
"O@	c #3D3D3C",
"P@	c #4A4B49",
"Q@	c #2E2E2D",
"R@	c #464745",
"S@	c #404140",
"T@	c #979897",
"U@	c #5C5F5C",
"V@	c #4B4E4A",
"W@	c #484B48",
"X@	c #939493",
"Y@	c #737473",
"Z@	c #4A4D49",
"`@	c #393B39",
" #	c #787877",
".#	c #646564",
"+#	c #474846",
"@#	c #4E4F4D",
"##	c #40413F",
"$#	c #434443",
"%#	c #444644",
"&#	c #454745",
"*#	c #434543",
"=#	c #424442",
"-#	c #434442",
";#	c #414341",
">#	c #404240",
",#	c #3F413F",
"'#	c #3E3F3D",
")#	c #3C3D3B",
"!#	c #3B3C3A",
"~#	c #393A38",
"{#	c #363735",
"]#	c #343634",
"^#	c #333533",
"/#	c #343533",
"(#	c #383938",
"_#	c #2B2C2B",
":#	c #3C3C3C",
"<#	c #646463",
"[#	c #333433",
"}#	c #2F302F",
"|#	c #292A29",
"1#	c #2A2B2A",
"2#	c #2A2A29",
"3#	c #2F2F2E",
"4#	c #2E2F2E",
"5#	c #353635",
"6#	c #30302F",
"7#	c #2F302E",
"8#	c #383837",
"9#	c #3B3C3B",
"0#	c #3C3D3C",
"a#	c #424241",
"b#	c #343433",
"c#	c #292929",
"d#	c #333333",
"e#	c #343534",
"f#	c #373837",
"g#	c #2D2E2D",
"h#	c #2E2F2D",
"i#	c #2C2D2C",
"j#	c #2D2E2C",
"k#	c #2B2B2A",
"l#	c #2C2C2B",
"m#	c #2D2D2C",
"n#	c #393939",
"o#	c #3B3B3A",
"p#	c #676867",
"q#	c #5D5D5D",
"r#	c #5C5D5C",
"s#	c #5B5C5B",
"t#	c #4A4B4A",
"u#	c #474847",
"v#	c #494949",
"w#	c #4D4E4D",
"x#	c #4D4E4C",
"y#	c #484A48",
"z#	c #474947",
"A#	c #494A48",
"B#	c #555655",
"C#	c #969795",
"D#	c #959695",
"E#	c #949594",
"F#	c #939593",
"G#	c #929392",
"H#	c #939492",
"I#	c #919290",
"J#	c #909190",
"K#	c #8B8C8B",
"L#	c #8A8C8A",
"M#	c #636363",
"N#	c #575757",
"O#	c #5E5E5D",
"P#	c #898A89",
"Q#	c #888988",
"R#	c #878887",
"S#	c #858684",
"T#	c #838482",
"U#	c #828381",
"V#	c #90918F",
"W#	c #888A88",
"X#	c #8D8E8C",
"Y#	c #8E8F8D",
"Z#	c #545453",
"`#	c #6E6E6E",
" $	c #666766",
".$	c #868785",
"+$	c #858685",
"@$	c #959694",
"#$	c #919291",
"$$	c #909290",
"%$	c #656564",
"&$	c #6F6F6F",
"*$	c #949593",
"=$	c #616161",
"-$	c #7D7F7C",
";$	c #7A7B79",
">$	c #6B6D6A",
",$	c #727372",
"'$	c #5E5E5E",
")$	c #696B68",
"!$	c #70726F",
"~$	c #3E403E",
"{$	c #898A88",
"]$	c #555855",
"^$	c #50534F",
"/$	c #515451",
"($	c #4E4E4D",
"_$	c #505250",
":$	c #4D504C",
"<$	c #4E514D",
"[$	c #373836",
"}$	c #5A5A59",
"|$	c #4C4F4B",
"1$	c #595958",
"2$	c #7F807F",
"3$	c #545554",
"4$	c #3D3E3C",
"5$	c #505050",
"6$	c #545454",
"7$	c #3B3D3A",
"8$	c #7A7B7A",
"9$	c #434643",
"0$	c #444744",
"a$	c #4B4D4B",
"b$	c #3A3B39",
"c$	c #4E4F4E",
"d$	c #6D6E6D",
"e$	c #434542",
"f$	c #444643",
"g$	c #545553",
"h$	c #393B38",
"i$	c #4B4C4A",
"j$	c #3F403E",
"k$	c #434642",
"l$	c #818280",
"m$	c #444743",
"n$	c #484947",
"o$	c #535353",
"p$	c #414140",
"q$	c #5B5B5A",
"r$	c #565956",
"s$	c #4D4D4C",
"t$	c #5D5D5C",
"u$	c #454544",
"v$	c #515150",
"w$	c #515151",
"x$	c #5B5B5B",
"y$	c #434342",
"z$	c #424542",
"A$	c #414340",
"B$	c #40423F",
"C$	c #424441",
"D$	c #3F423F",
"E$	c #3F413E",
"F$	c #777877",
"G$	c #383838",
"H$	c #767776",
"  . + @ # $ % & * = - ; > , ' ' ) ) ! ~ { ] ] ^ / ( ( _ : : : < [ } } | 1 1 1 2 3 1 4 } } 4 4 4 4 4 } [ ( ( ( / 5 ^ ^ [ 6 7 8 9 ",
". 0 / _ a b c d e f g h i j k l m n o p p q r s t u u v w x x v y z A B C D E C F G H I I H J G K L M A N N O P Q R R Q M 8 S T ",
"U 1 a b V W X n Y Z `  ...+.R @.#.$.@.u A D z %.&.*.*.*.=.-.-.-.;.>.,.,.;.,.'.>.,.,.).).'.!.!.!.-.~.*.{.M E E B ].^.x /.(._.:.<.",
"[.a V }.}.|.n Y  .+.t 1.t t #.2.u 3.].4.D 5.I 6.*.7.=.-.;.>.).).8.9.>.>.>.,.0.0.a.b.).).8.;.a.>.~.&.I 5.G %.L 4.C C C H c.d.e.f.",
"g.2 f h.i.j.k.l.m.n.o.p./.^.q.q.].].B C F r.*.*.;.s.t.u.9 t.v.b.).).,.9.a.a.).8.9.9.b.b.).8.>.a.,.~.&.w.w.&.H K L x.&.G y.7 z.A.",
"B.C.g h.D.E.l.m.F.o.G.H.v I.A 4.4.K 4.J J.-.!.,.b.s.K.s.t.s.b.v.s.s.s.d.v.9.9.b.L.L.v.s.s.M.9.9.a.,.~.!.!.;.*.5.H &.~.J.N.9.N.O.",
"P.f }.Q.q q F.n.#.G.R.v S.A A T.F J 5.I ~.=.-.b.s.t.U.V.W.K.t.K.X.9 d.t.s.M.d.v.s.s.X.9 9 K.s.L.d.s.b.a.a.>.,.Y.=.*.-.;.Z.`. +.+",
"++@+D.#+l.m.$+/.^.%+&+I.E y 4.F J *+5.J.!.;.8.t.W.K.=+-+=+;+>+u.u.W.K.t.9 9 t.t.X.9 u.W.>+V.9 W.W.K.u.d.b.).9.v.-.-.9.a.,+,+'+)+",
"* h.n r n.#./.x %+!+y D D E x.~+J 5.5.J.=.-.b.-+=+;+{+]+]+^+;+=+-+-+>+u.u./+-+>+(+_+:+U.<+(+(+[+:+(+(+-+t.K.v.d.W.s.9 ).}+N. +O.",
"|+l ` t o.q.%+1+!+2+E 3+M F 4+~+J w.5+J.!.,.s.=+]+]+{+6+]+^+7+[+[+8+9+;+=+:+0+^+;+[+[+U./+9+=+a+/+<+<+<+-+K.d.u.-+t.K.d.b+,+,+c+",
"d+e+f+p.g+S.!+2+h+i+E H J G J w.w.J.~.-.d.-+;+_+=+]+j+6+6+6+a+k+6+6+8+^+_+_+6+6+l+m+l+e.n+n+o+p+7+:+o+q+;+r+:+(+(+W.K.s.s+t+S }+",
"u+v+o.%+w+x+y+i+C L F w.J.6.z+A+B+>.8.X.>+=+:+^+]+6+C+6+D+n+k+m+;+[+]+]+^+m+e.n+n+n+n+k+k+E+F+G+p+H+I+E+J+K+p+[+9+<+K.s.L+f.A.M+",
"N+@./.I.O+E %.H %.G J *.w.J.w.=.>.).v.d.K.P+=+^+]+]+C+D+D+n+r+k+k+o+o+o+r+l+D+D+E+p+n+r+Q+R+S+S+T+S+U+I+V+G+H+W+7+9+(+t.X+f.Y+Z+",
"`+t  @y 4.M %.G &.J.=.w.!..@=.+@>.8.9.W.>+=+^+^+]+C+C+k+p+p+r+k+k+o+o+o+r+E+E+E+K+G+G+Q+V+R+V+@@@@#@$@$@$@R+F+p+e.0+<+u.,+8 :.%@",
"' Q 4.4.M K ~+w.J =.Y.w.&@a.*@9.).s.-+U._+=+^+D+=@r+k+D+-@r+k+k+o+o+o+r+r+E+E+K+G+U+$@;@;@;@;@;@@@@@>@'+,@;@S+'@e.6+_+_+)@8 !@~@",
"! {@K G 5.]@J.J.!.!.!.^@>.8.9.L.t.u.U.>+:+;+^+D+r+k+k+n+n+r+k+o+o+r+r+/@E+E+q+q+H+(@_@;@:@@@@@@@<@[@[@}@|@|@;@1@Q+E+2@m+3@t+4@5@",
"^ @.K 5.6@7@7@>.*@a.9.>.a.9.d.v.M.K.=+-+W._+^+]+]+j+6+]+]+a+D+6+6+l+l+a+D+o+p+p+W+V+_@S+S+T+@@@@[@}@8@9@8@0@@@1@'+a@R+e.Y+t+c.b@",
"c@d@K J.=.!.>.a.9.L.v.v.b.L.t.b.9.s.X.K.K.-+=+;+;+[+[+^+;+;+[+0+]+m+m+a+D+n+2@p+W+e@R+V+S+S+@@@@f@8@8@g@g@g@h@@@@@@@;@p+t+i@j@Y+",
"k@ @5.>.!.9.a.d.d.t.X.X.d.s.s.d.t.s.M.t.K.W.-+l@_+-+/+;+;+_+:+0+]+m+m+m+e.n+l+2@W+W+R+S+S+;@@@m@n@n@o@g@g@g@g@|@g@m@;@s+Z.X+c.L+",
"/ y =.8.).L.v.>+V.u.K.d.t.M.t.K.V.X.t.t.K.W.-+=+=+=+/+/+_+_+:+:+^+^+m+m+0+]+]+2@W+W+R+S+S+@@@@m@f@f@n@p@p@g@g@g@g@@@@@,@)@q@Z+r@",
"c@B !.(+t.V.u.-+U.W.K.s.X.K.K.K.V.K.t.t.W.K.K.W.=+=+=+-+<+<+=+:+:+9+;+^+7+7+6+2@p+W+W+R+V+;@s@m@m@f@f@f@o@o@o@g@g@;@m@m@t@O.u@N.",
"< O+'.-+-+/+U.U.U.>+V.X.v@K.t.t.w@K.t.t.t.K.K.K.V.9 W.-+-+>+(+=+=+/+/+9+7+7+e.n+o+o+r+H+Q+V+#@:@h@x@x@f@n@o@o@o@o@y@0@z@A@u@~@A@",
"B@D ,.=+=+C@_+-+<+=+-+W.K.K.t.t.t.t.t.t.t.t.9 t.t.t.t.W.W.K.K.<+_+:+=+:+^+;+^+m+m+D+o+K+D@S+#@#@E@F@8@G@g@g@g@g@H@f@f@8@z.I@5@J@",
"[ L ).;+;+;+;+_+=+=+=+W.W.K.K.t.t.s.s.t.t.t.t.X.t.t.t.V.V.9 W.-+K@_+_+=+:+[+8+m+m+m+l+W+a@R+F+T+#@m@m@8@p@p@g@9@g@G@f@f@L@M@N@O@",
"1 %.t.{+^+{+]+;+_+=+=+-+W.K.K.t.t.s.s.s.t.t.s.s.s.d.d.d.K.V.(+=+=+/+/+U.K@;+;+6+7+]+]+o+p+W+Q+;@;@|@h@0@f@f@H@f@f@8@8@0@P@Q@R@S@",
"T@H W.{+{+{+]+U@U@=+=+-+W.K.K.K.s.s.s.s.M.).8.v.t.t.X.9 K.-+>+K.>+>+=+/+:+:+/+;+^+^+;+m+o+o+o+G+$@#@V@}@F@8@8@G@x@0@W@W@'+u@J@q@",
"X@Y@K.]+]+]+:+:+=+=+-+W.W.v@t.t.v.s.9.9.b.).b.d.K.K.K.t.X.X.d.9 W.W.U.K@K@<+>+-+=+[+:+:+]+n+n+r+a@;@Z@m@m@m@8@8@F@0@0@|@t@`@A@u@",
" #.#N.+#@###,@,@s@$#%#N.N.R@t@t@t@t@&#&#*#*#$#$#=#=#}+$#-#A@*#-#z.z.z.z.z.;#;#}+;#>#,#,#'#)#)#!#~#{#]#^#/#]#/#^#]#]#{#(#~#_#:#y.",
"<#[#}#|#|#1#^#[#u@|#|#|#2#1#3#3#4#4#5#.+M@M@M@M@}#}#}#6#M@M@M@}#7#7#4#}#}#4#}#[#u@u@5#5#M@M@6#I@:.c+O.5#8#O.O.)+9#0#0#0#9#.+:.a#",
"Z.b#c#c#4#.+d#[#e#0#:.:.9#0#u@5#u@f#}#4#g#g#g#h#g#i#g#g#i#_#i#j#k#i#l#M@m#l#i#i#m#i#_#_#7#7#4#I@c+(#f#[#f#(#8#f#f#)+(#f#n#o#5@Z+",
"A z p#q#(.j@r#9+s#,+,+L+L+c.y.Y+t#Z.u#<.u#u#u#u#u#r@r@r@N.L@q@v#r@y.N.R@w#w#s@s@s@w#x#,@,@x#z@y#z#<.A#<.u#<.Z.Z.t#Y+3@y.@#X+,+B#",
"C#| T@D#E#F#G#H#G#G#G#H#c I#I#I#J#|.i i K#K#K#L#6 i.i.i.j j X+M#N#O#i.L#L#6 6 L#i.6 j P#P#Q#R#l S#T#T#+.+.U#..Y Z S#Z S#S#n P#}.",
"X@V#V#X L#L#i.L#j W#6 K#6 X#e J#I#I#I#J#V#V#W f f g V e Y#Y#Z#`# $~+H#F#c J#e e Y#e h X X @+6 j P#k k n .$o +$p ..l.q l.U#Z o l ",
"@$#$$$Y#}.K#6 K#6 6 K#}.}.X V#I##$#$#$#$J#J#V#V#V e W W W W B#~+%$&$X@*$G#$$W V f V#f f h h h.i.j W#Q#R#n m o Y p ..l.Y l.S#.$n ",
"h.s m.#.u  @O+].].O+O+E y y O+I.v O o.t d@{@q.{@{@O o.o.t t Z.Y.=$Y.h f o R @.t o.t -$-$d@;$v I.O+A A E D F &.>$w.G *.F w.%.M ,$",
"n 3. @E 4.K I I r.w.~.0.'.a.M.L.L.).L.L.L.,.8.0.0.9.a.0.a.'.N@=$'$(.K#X#u 5.)$)$!.5+;.;.0.9.X.W.K@K@_+=+-+-+9+;+[+b.-+9.s.b.0.).",
"l #.].4.D !$&.*.)$!.L.t.V.V./+/+/+7+e.-@r+7+l+l+l+=@l+l+^+:+~$j@(.Z#{$h.D t.[+:+:+;+;+7+6+n+n+E+W+K+E+o+6+[+:+W.K@s.-+9.s.9 d.t.",
"S#$+A M C %.5.~.>.>.).L.K.>+:+m+8+o+E+H+H+H+e@e@e@a@a@W+n+E+!#X+f.X+o {$F :+E+m+m+m+D+p+H+V+R+R+G+G+E+n+]+/+K.s.(+9 9.).d.s.V.W.",
" .].M L L *.*.>.b.b.M.9 <+[+]+l+k+]$K+G+V+V+^$S+S+/$R+R+R+$@`@,+f.($l.l w.l+G+E+E+o+G+$@V+_$;@S+R+H+p+l+7+_+W.s.t.M.a.).X.s.K.(+",
"o.L J G G 9.)$s.u.W.U.U.;+n+n+W+a@R+R+$@#@#@:@:$|@@@;@;@<$#@[$'@}$N.s q J.k+/$$@$@V+;@#@:@s@@@1@$@Q+E+e.]+<+(+-+K.X.(+W.<+=+=+9+",
"D H =.0.~.V.s.u.=+9+9+;+D+q+H+Q+Q+S+T+T+@@@@E@|$[@h@Z@m@<@m@[$1$,+A. @2$%.D+;@;@1@#@[@[@[@0@z@@@1@Q+E+o+l+:+8+9+_+-+9+-+;+0+l+0+",
"L >.L.L.K.<+K.(+_+:+8+l+/@K+G+D@U+#@|@|@|@m@<@<@m@}@F@0@0@W@~$f.3$J@D $+K D+s@z@m@0@f@8@f@f@y@|@@@V+R+2@a+0+9+^+0+9+;+8+8+^+a+6+",
"*.t.(+s.u.9+9+;+;+7+7+n+o+H+V+V+S+@@[@[@[@F@0@0@0@0@W@8@8@8@4$5$6$O@H q.C n+,@8@g@g@g@g@g@H@f@[@|@S+V+p+2@D+]+7+e.r+E+q+k+6+8+D+",
"9 /+;+;+;+0+0+0+n+l+l+k+K+R+$@$@#@[@[@h@0@0@W@8@8@8@8@8@x@f@7$L+t+c+I 8$x.k+|@f@H@o@o@o@9$o@0$m@a$@#$@Q+a@r+6+]+2@r+D+q+a+6+2@k+",
"_+e.D+o+n+n+l+k+k+a+D+q+K+G+$@$@#@z@m@m@m@8@8@8@8@G@f@f@W@8@b$c$B#:.d$N 4+2@}@o@o@o@o@e$e$e$f$8@[@|@'+g$W+g$J+k+H+q+2@p+g$2@r+/@",
"q+7+2@2@n+/@/@E+k+D+o+p+H+U+$@_$;@s@|@m@m@m@8@8@0@0@0@W@m@8@h$Y+3$o#d$N 4+r+y@o@o@0$f$e$e$f$f$p@0@|@#@'@'@Q+a@K+s+I+a@a@'@2@r+/@",
"G+E+E+H+H+o+r+n+l+a+a+E+K+G+U+$@;@;@;@m@m@m@m@}@}@0@0@0@m@}@7$w#t+:.H ;$L 2@[@f@p@o@o@e$e$f$f$H@[@i$|@1@'+F+'@U+ +b+'@F+U+R+q+D+",
"H+I+W+W+J+k+o+o+D+n+n+r+W+a@a@F+$@>@#@E@|@|@m@m@m@[@[@[@|@|@j$X+8 9#L O ,$m+@@0@f@H@n@o@9$o@g@g@0@0@,@;@F+$@V+s+b+_$F+$@$@s+I+r+",
"U+K+H+H+p+r+r+r+E+a+a+o+p+p+H+H+Q+V+;@T+#@#@#@,@|@;@;@@@1@#@%#3$f.O@D Q B [+#@[@8@g@g@g@f$g@f@f@8@y@|@s@1@'+s+g$F+S+$@Q+R+g$g$/@",
"R+R+G+W+E+K+o+o+o+o+n+n+r+E+E+W+G+U+U+$@;@S+S+F+F+$@$@'+;@_$Y+8 f.0#B R ]./+_$s@m@f@f@f@k$e$g@G@G@m@@@#@#@;@'@g$I+I+K+p+p+I+J+/@",
"Q+H+p+H+r+r+E+/@k+o+D+D+n+n+n+r+e@a@R+D@D@U+V+V+V+V+/$F+$@U+<.8 t+b$O+l$v U.$@#@[@0@G@f@f$f$f@8@8@[@,@;@)@1@$@a@a@/@p+W+E+I+p+a+",
"K+E+o+p+p+7+n+6+l+l+]+m+m+m+D+o+p+H+R+R+R+R+D@U+U+V+Q+R+R+R+,@6$f.0#I.U#x (+F+@@<@m@8@8@0$m$g@f@W@W@a$E@#@;@S+g$Q+J+J+o+l+r+k+D+",
"E+k+k+o+o+m+n+e.6+]+]+]+m+m+a+o+E+o+W+H+R+a@R+R+D@U+G+G+Q+R+n$o$}$p$3.m. @K.R+;@|@m@m@8@g@0$0$g@z#f@0@<@@@'+_$F+R+H+W+k+o+K+K+H+",
"n+l+l+l+^+m+D+D+7+7+7+]+]+8+k+D+D+o+E+p+H+W+W+R+G+G+D@U+(@Q+A@X+q$}+w U#N K.Q+;@|@m@m@W@f@o@o@g@8@G@0@|@|@@@'+V+_$a@K+k+r+a@K+p+",
"n+7+]+l+k+m+:+D+7+7+7+7+7+n+k+k+k+E+E+r$p+p+H+e@e@a@G+G+G+G+-#s$t$q@x Y ;$=+$@'+#@h@z@0@0@f@f@o@p@8@0@z@0@z@1@$@'+a@o+q+p+H+W+Q+",
"6+K@0+]+]+:+:+^+m+^+e.e.6+6+6+n+l+k+E+o+D+o+p+H+H+e@e@a@K+K+=#t#q#u$ @p 8$>+R+S+S+#@[@h@h@0@0@f@f@f@8@y@y@0@s@@@1@$@ +#@#@s+K+$@",
"K@U.0+_+K.<+:+:+^+/+^+e.7+7+_+7+l+n+E+l+l+o+r$p+p+W+H+e@W+K+z#y.q#Y+x p q.K.R+F+F+#@[@[@[@h@z@0@f@f@8@8@m@y@0@0@0@)@m@y#@@x#8@_$",
"9 U.K.<+t.K.V.=+^+m+^+U.U.;+_+_+[+]+:+^+^+o+q+o+6+n+o+W+E+W+I+v$O#t#x Y q.K.a@R+F+S+#@E@[@|@[@z@0@W@W@8@m@}@0@0@0@z@m@f@f@f@f@8@",
").d.t.<+V.V.V.u.9+7+W.U.U.<+=+=+:+m+/+/+K@7+D+0+0+]+/@r+E+K+'+w$x$P@u Z O v.k+R+R+U+U+;@[@|@s@|@m@W@8@8@p@y@0@g@G@f$g@f@H@f@o@8@",
";.s.s.s.b.!.=.=.K.d.v.>+=+=+u.9 K@U.U.<+_+:+=+:+^+^+^+m+m+6+z@y$($'@N S#q.M.E+U+U+U+Q+V+;@;@)@1@a$m@m@y@p@g@g@f$z$z$A$B$B$C$C$8@",
"!.J.8.L 5.w.G %.s.M.,.L.v.9.v.s.s.s.9 u.U.v.t.<+_+_+8+8+8+]+y@u$T s+/.p q.t.W+I+I+s+F+F+F+$@'+'+,@,@[@0@0@z#f@f$A$>#B$B$B$B$B$g@",
"C w.w.F F G G H =.>.,.b.v.~.&.]@a.!.).M.,.>.>.!.K.V.<+=+[+]+P@v$N.N.u l./.v.o+H+G+g$V+V+V+s+;@|@|@1@m@m@0@f@o@C$B$B$B$B$B$B$D$&#",
"E *.%.H M =.5.J H H x.I w.J.w.~.-.-.J.w.J.!.=.;.).(+[+-+9+6+a@A.y$U+ @T#N s.2@G+'@G+g$Q+Q+Q+b+_$_$;@s@y@8@8@g@e$B$B$,#,#E$E$A$o@",
"M 4.4.F$D G &.&.A d$M F w.!.J.-.,.p#a.J.J.&.~.-. $t.d.9 =+[+I+:.G$R@H$r  @t.p+'@'@U+Q+Q+Q+R+R+s+F+;@s@[@8@8@+#t@A@C$E$B$e$%#%#R@"};
