/* XPM */
static char * stone_bricks_raw_xpm[] = {
"64 64 149 2",
"  	c #BEBEBE",
". 	c #B6B6B6",
"+ 	c #B4B4B4",
"@ 	c #B3B3B3",
"# 	c #B1B1B1",
"$ 	c #AFAFAF",
"% 	c #AEAEAE",
"& 	c #ADADAD",
"* 	c #ACACAC",
"= 	c #AAAAAA",
"- 	c #A9A9A9",
"; 	c #A8A8A8",
"> 	c #A7A7A7",
", 	c #A6A6A6",
"' 	c #A5A5A5",
") 	c #A4A4A4",
"! 	c #A3A3A3",
"~ 	c #A2A2A2",
"{ 	c #A1A1A1",
"] 	c #A0A0A0",
"^ 	c #9F9F9F",
"/ 	c #9E9E9E",
"( 	c #9D9D9D",
"_ 	c #9C9C9C",
": 	c #9B9B9B",
"< 	c #9A9A9A",
"[ 	c #999999",
"} 	c #8A8A8A",
"| 	c #616161",
"1 	c #585858",
"2 	c #636363",
"3 	c #979797",
"4 	c #939393",
"5 	c #919191",
"6 	c #909090",
"7 	c #8F8F8F",
"8 	c #8E8E8E",
"9 	c #8C8C8C",
"0 	c #898989",
"a 	c #878787",
"b 	c #868686",
"c 	c #858585",
"d 	c #848484",
"e 	c #838383",
"f 	c #818181",
"g 	c #7F7F7F",
"h 	c #7E7E7E",
"i 	c #7A7A7A",
"j 	c #787878",
"k 	c #797979",
"l 	c #757575",
"m 	c #767676",
"n 	c #737373",
"o 	c #747474",
"p 	c #727272",
"q 	c #717171",
"r 	c #707070",
"s 	c #6F6F6F",
"t 	c #6E6E6E",
"u 	c #7C7C7C",
"v 	c #626262",
"w 	c #4A4A4A",
"x 	c #B5B5B5",
"y 	c #828282",
"z 	c #808080",
"A 	c #7D7D7D",
"B 	c #6D6D6D",
"C 	c #6C6C6C",
"D 	c #6B6B6B",
"E 	c #6A6A6A",
"F 	c #696969",
"G 	c #686868",
"H 	c #676767",
"I 	c #7B7B7B",
"J 	c #3B3B3B",
"K 	c #494949",
"L 	c #8D8D8D",
"M 	c #888888",
"N 	c #777777",
"O 	c #505050",
"P 	c #646464",
"Q 	c #5B5B5B",
"R 	c #595959",
"S 	c #B2B2B2",
"T 	c #666666",
"U 	c #656565",
"V 	c #4D4D4D",
"W 	c #424242",
"X 	c #B0B0B0",
"Y 	c #929292",
"Z 	c #8B8B8B",
"` 	c #464646",
" .	c #3A3A3A",
"..	c #5F5F5F",
"+.	c #323232",
"@.	c #606060",
"#.	c #545454",
"$.	c #393939",
"%.	c #5D5D5D",
"&.	c #5E5E5E",
"*.	c #434343",
"=.	c #454545",
"-.	c #ABABAB",
";.	c #5C5C5C",
">.	c #515151",
",.	c #3C3C3C",
"'.	c #5A5A5A",
").	c #575757",
"!.	c #535353",
"~.	c #555555",
"{.	c #565656",
"].	c #525252",
"^.	c #444444",
"/.	c #4B4B4B",
"(.	c #4F4F4F",
"_.	c #4E4E4E",
":.	c #3F3F3F",
"<.	c #4C4C4C",
"[.	c #3E3E3E",
"}.	c #484848",
"|.	c #404040",
"1.	c #474747",
"2.	c #363636",
"3.	c #373737",
"4.	c #313131",
"5.	c #3D3D3D",
"6.	c #2E2E2E",
"7.	c #414141",
"8.	c #989898",
"9.	c #353535",
"0.	c #343434",
"a.	c #2C2C2C",
"b.	c #333333",
"c.	c #383838",
"d.	c #2A2A2A",
"e.	c #2F2F2F",
"f.	c #303030",
"g.	c #C6C6C6",
"h.	c #C5C5C5",
"i.	c #959595",
"j.	c #949494",
"k.	c #969696",
"l.	c #B7B7B7",
"m.	c #B9B9B9",
"n.	c #BABABA",
"o.	c #C2C2C2",
"p.	c #2B2B2B",
"q.	c #272727",
"r.	c #2D2D2D",
"  . + @ # $ % & * = - ; > , ' ' ) ) ! ~ ~ { { ] ^ / / ( ( ( ( _ _ : : < < < < [ [ < : : : : : : : : : _ / / / ^ ^ ] ] _ } | 1 2 ",
". ] ^ ( 3 3 4 5 6 7 7 8 9 } 0 a a a b c d e f g h i i j k k k j l l l m n n o p q r s t t s s r p q n l i i u u g f f g n 1 v w ",
"x < 3 3 6 6 8 a c c y d c y z g A g z k l o l r B B B C D D E E F F F F F G F F F F H H F E E E D D C s n o o m m I k i 2 | J K ",
"@ 3 6 9 L L M d e e g f g h A u k j N o n t t B C D D E F F G H H H F F F G G G G H G H H F G F D t t t r q q o p p p s O P Q R ",
"S [ 6 9 } b c d y g h h i u u I m N m p q B B C E T U 2 P U T H H H G H G G H H H H H T H H F G G C B B B t s p q q B r V | W W ",
"X Y 7 Z M c d y f A A i k N l n n p n s C E E G H U P T U U T T T U U U T H H T T T T T U U H H G G D E E F C t s B D C ` H `  .",
"$ 7 L a e y z g A u I k N l l p q t t t D D D H U U | 2 2 P P 2 P P U P U U U T T U P P P P U T U T T G G F G F D B E F w ..O +.",
"% L M d d y h i I k k j l l o r s t t C E E H P 2 2 | v @...v 2 2 v 2 P P P U P P P 2 v v 2 P v v 2 2 U T H H T E E H G #.#.O $.",
"* 9 M f z A i k k N m o n o q s s t t C D E H v @...%.%.%.%.&.@.| | v 2 2 @.| v v ....| | v v &...v v | U 2 T U v U P H *.=.O  .",
"-.a y h A u k j N m l p n q r s s B D C E G T | %.;.%.;.%.%.%.&.&.&...&.@...%.&...&.&.| @...| Q @.| | | | 2 U 2 | P 2 U >.#.#.,.",
"= c A h A N N m m n o s t r s B B C C E U v ....@.;.;.;.Q Q Q R ;.Q &.&.@...;.;.Q ;.Q ;.'.'.R ).%...R 1 ..R ..v v v 2 U !.).v *.",
"; y h k i l n n p p q B C B B C D F H P v | ..%.%.Q Q ;.'.'.'.;.&.&.%.;.&.;.;.'.'.'.'.'.'.1 !.~.1 {.{.1 ).).1 &...| P U ].1 W ^.",
"> z I j m l r r r r s C C C C D F H T U 2 v @.%.%.%.Q Q '.'.R '.'.R R R R Q Q Q 1 1 '.R ~.#.].>.O >.#.{.!.~.{.).%...v U >.R /.` ",
", g k l o n r r B C D B E G D F F H H 2 v | &.%.%.Q Q R 1 1 1 '.'.R R R R R 1 1 ).~.~.~.!.~.!.(.(.O ].].].#.!.).;.%.| 2 #.1  .'.",
") h o o n q s B t E F B F G H H G T v | ..@.%.'.'.1 R Q R R '.'.R R R R R 1 1 ).~.#.].>.>.O O O _._.>.>._.O ].#.;.Q @...(.1 :. .",
"! u p r B C C D E F F E F H H T U 2 | v ....%.'.R R R '.'.R '.R R R R '.1 1 1 1 {.~.].>.(.(.(._.V V V /._.V O O ~.1 R ;.<.). .[.",
"] g p t D E E F H G H G G H U T U P | | v @.&.;.;.;.;.%.;.Q Q ;.;.Q Q Q '.R 1 1 ).#.].].>.O (._.V /.w }.K /.(.O >.~.#.;.<.).O |.",
"/ h q C D E F G H T T U T T U T H T P P 2 v @...&.&.&.&...&.&.%.%.;.;.Q '.'.R 1 ).{.#.!.>.>.(._.}.w w }.}.1.<._._._.>.1 )./.&./.",
"/ k t F E T H U U U P P U T U U P U U U 2 2 | | @.| @.........%.%.;.;.;.;.'.Q R ).).~.].>.O (./.1.1.1.}.}.}.1.V 1./.>.!.w O O >.",
"^ l D H G T T v 2 2 P U P U U P 2 P U P 2 2 | | | @.@.@.@.......&.%.;.;.%.%.%.R ).).~.].>.(.(.<.K }.1.}.}.}.}.1.1._._._.O ^.` ` ",
"/ m E v P 2 2 v | v 2 T P P P 2 2 P U P 2 P 2 v | @.@.| | | | ........%.%.%.;.R 1 ).).~.!.O (.<.<.K K }.1.` ` }.1.O <./.1. .2.` ",
"_ N F v v @.| | | v 2 P P P U P P P U P P P P 2 2 P 2 | | v v | @.@.@...%.%.;.'.R R R {.~.!.(.(.<.K K K 1.1.1.1.` /./.<.=.3. .^.",
"_ n F @.@.@.@.| | | v 2 P 2 P P P P U U P P P U P P P 2 2 P 2 | @...@...&...%.;.;.Q R ).#.>.O (._./.K K 1.1.1.1.1.}.}.K *.+.[.[.",
"_ q H ......&.@.| | @.2 2 2 2 P P U U U U P P P U P P 2 2 P 2 | @.@.@.| ..&.&.;.;.;.Q ).{.#.!.O O /./.w }.}.}.}.}.K K K ` 4.:.5.",
"< r U %.%.%.%.&...| @.v 2 P P U P U U U U U T U U U U U 2 2 v | @.@.@.| @...&.;.%.%.%.R 1 1 ~.>.>._.<.w K K 1.}.}.w K /.w 6.` 7.",
"8.r v %.%.%.%.&.&.@.@.v 2 P P P T U U U U H H T P P P P P | v 2 v v | @.....@...&.&...;.R '.R ~.!.O V /./.K K K K w w w O 3.[.=.",
"4 o 2 %.%.%.....@.@.| 2 2 P U U T T H H T H T U P 2 2 P P P U P v v | @.@.| v v | &.....%.'.'.R {.O <.<././.w K /./.w V 1. .^.3.",
"j U ` }.(.7._._.(.=.` 1.1.1.}.}.}.}.}.}.` ` ` ` =.=.^.=.=.` ` =.^.=.^.^.^.^.^.^.^.*.W W |.5.5.,. .3.9.0.9.9.9.0.9.9.3.$. .a.,.V ",
"P J $.9.b.0.,.J 5.0.c.3.3.$.J J J  .[.5. . .J J $.$.$. .J J  . . .$. .,.J  .J [.:.|.[.[. . . . .|.|.5.3. .J J  .5.,.5.5.,.b.J W ",
"w 0.d.d.e.b.b.0.2.[.5.[.[.:.$.$. . .9.0.b.b.b.0.b.b.b.b.+.+.b.b.f.f.4.$.2.+.0.0.9.9.0.0.2.3.2.c.:.,. .2.c.$.c.c.3.$.$.c.$.J [.` ",
"g.h.] 6 & = ; - ' [ [ [ [ [ [ [ [ [ _ _ _ _ _ _ _ _ _ : < 8.i.a h 0 j.[ , ; > > > , , , , , , ' ! ~ / / : < 8.3 k.3 k.k.k.i.i.i.",
"{ ] ] ] ] ] ] { ~ ! ! ! ! ! ! ! ) ' > > > ; - = - > { 3 Z b 8 7 H N * S S X % & -.= - > , ' ) ! ~ { { ] ] / / ( ( : < [ 8.3 3 i.",
"I u k i I k j N N m m N N j i i u h e e b b M Z Z Z 0 a b f 6 4 m c ~ ^ / _ 3 k.Y 6 7 8 8 L Z } M b b b c e e f g A u N N l l l ",
"r r q r q q q q r r p n n n o l m k A g g f y a c a a b A z 4 i.n u ! < 8.3 6 6 8 a c b y d c y z z A g g k o n o r C C D D F G ",
"q q q q q q q r q q q n p n m j k k I u A z g g g I I i z A Y 7 >.;.0 8.5 L 8 8 0 c d d g y g g h A i j N o n t t C C E E F G H ",
"q r q q q q q q q r p p o p o N k k k i u h h h i A k N m l 5 8 {.N t < 6 9 Z a c d e z g g I u u u m N m n q B B C F U P v 2 2 ",
"t t s r r r r r r r r r p p n o N m m m k I u i j k I m n o ! a p w s Y 7 Z M b d y f h A i k N o n n p n t D E F G T P 2 P 2 P ",
"B B t t t s s s t t t B r q s r p n n o o l N k N m l n p p ~ t N j M 8 Z b f f g h u I i N m o n r s B C C E F F U 2 2 ..@.@.| ",
"D C C C B B B C D D D C B C C B B s q p q r l l p n p p r p ^ l y ..E } c f z g I N j m m l p p r B D D E G H T P | ..@.%.&.;.'.",
"F E F H G F F H H F F E F T H E E E B C s t D t B q s B s q _ T i.'.'.b y I I j l o o p q t t s C E F F G T T U v %.Q R 1 ).).).",
"P P T U v 2 P P P H T U H | H G G G F E C E F C D B B B p r [ n m F _.g i N m l p q r s t D C E F G G T P P 2 | ..'.{.~.{.#.~.{.",
"v v P P @.@.@.| @.| ....&.;.v U &.%.P &.U G H F F D B t q t $ A T G ).u o l o s t t t D C H T H T P P 2 2 v ;.'.).).1 #.#.!.!.].",
"@.@.| @...&.&.&.&.%.%.;.{.R Q '.'.;.Q Q Q v 2 U G E D s r s % ).~.T ~.N n s r D F F G G H 2 v 2 2 v | ..&.'.R ).{.#.#.].>.].>.O ",
"Q Q Q &.%.%.Q '.%.;.).).#.#.!.#.).R {.1 R '.@.v U G F s q p % r F U #.o s C D E U U U U P | | | | @.&.%.Q '.R ).{.!.!.].>.O O (.",
"Q Q Q Q '.'.R ).).).{.).~.>.>.].~.~.#.).~.'.&...2 U C D q p % l F o '.p B F G H U P v @.@.| &.%.@.&.%.;.Q 1 ).{.!.].].>.O (.V V ",
"Q Q Q Q '.R 1 {.~.!.!.!.].].>.>.!.!.O !.#.{.&.&.v v T D r q $ k H V '.p G G H T P | 2 ..&.| &.%.;.;.;.'.).{.~.{.!.O O _.(.O _._.",
"Q ;.Q Q Q Q R 1 ~.!.].].>.>.O (.(._.>.O !.!.1 Q ;...v C n r % m T ).'.q H U 2 v | | ........&.%.;.;.'.R ).1 ~.~.!.>.(.O (.O O _.",
"&.&.&.%.Q Q Q ).~.~.~.!.].].O (.V /.V _.].!.#.R 1 @.| B B q & o T *.o o G P v | @...&...%...&.%.;.;.;.'.1 1 R {.~.#.!.!.!.!.!.>.",
"@.......%.;.;.'.R ).{.~.].].<._._.<././.O !.].].~.;.v T B t * s F ` K l F P 2 | | @...&.&.%.&.&.;.&.&.%.;.Q Q R 1 ).{.{.{.~.{.{.",
"| | | ..@.&.;.;.'.).{.~.!.O /././.<.<.<.<.]./.O {.1 ;.P F G -.B t =.].q T v 2 @.@.&.&.&.&.%.&.&.&.&.%.&.&.%.;.;.'.'.1 '.R ).).1 ",
"v v 2 v v &.%.%.'.).).#.#.>.V V <.V V <.<.<.<.!.!.!.1 2 H H { l o U #.s U | | @.@.;.%.%.&.&.&...&.%.%.&.&.&.%.;.Q Q '.'.'.R R R ",
"P 2 2 2 v ..%.%.%.'.R {.#.>.>._._.V /././.V <.~.>.>.{.;.2 G S p T k T r U %...&.&.;.;.%.&.@.&.&.&.&.%.&.....%.&.%.;.Q Q '.Q Q '.",
"T U 2 2 v @.......;.'.R #.#.>._._.V <.<./././.O O >.#.'.2 T l.H n F o q P %.%.Q ;.;.;.%.&.....&.......&.....&.&.&.&.%.&.%.Q Q ;.",
"T U 2 P 2 v v @...;.R {.~.#.!.(._._.<.<.<././.V V _.].).%.| m.n @.;.T t P ;.;.;.Q ;.;.;.%.&...&.......&.......&.&.......&.%.%.%.",
"U T U 2 2 v v v @.;.Q R 1 ~.#.O O _.<.<.<.<./.V V V !.~.;.| n.G _.}.T B 2 '.'.'.'.Q ;.;.;.&.&.&.&.....@.@.........&.......%.%.&.",
"U H U P P | v v v &.;.;.R ~.~.].O _.<.<.w <.<.V V (.!.{.&.| n.E V V U C | R R R R '.Q ;.;.%.&.....@...@.@.@.@...@.@.@.......&.%.",
"U U P P U P v v 2 @.&.&.&.R {.!.O _._.<.<.<.<.V V V !.).&.v x B }...%.C ..R R R R '.'.;.;.%.&.......| @.@.@.@.v v @.......&.&.;.",
"U P P U T T U v 2 2 @.&.&.;.R !._._._._.<.<._.V V O !.R @.@.o.C }...'.r @.R R R ;.Q ;.;.%.&.&...@.@.| | | | | v | ..&.&.%.&.&.&.",
"T T T T T H T P 2 2 @.&.&.;.R #.>._._._._._.V V O ~.#.'.v T & o w t &.n 2 %.%.Q ;.;.;.%.&.....@.| | @.@.| | @.@.....&.%.%.&.&...",
"@.@.&.;.%.%.;.Q R 1 ).#.~.!.O <.<.K K }.` =.` }.w V (.~...| - r }.1 _.D ;.1 {.~.{.~.).{.{.#.~.{.~.{.#.~.{.{.{.).1 1 {.{.{.).R 1 ",
"| v @.%.&.&.&.%.;.Q '.'.{.#.#.].O /././.w /.(.>.].#.).'.| 2 ; B 1 m ^.C P ..&.%.%.%.;.Q Q R 1 1 ).{.{.).).).).).).1 ).{.).1 1 ).",
"M M C k e t y y e q q q r r r r r r B B D D E E E E F G F F G G <.K r [ [ [ [ 8.8.8.3 3 3 3 k.k.k.k.i.i.j.4 4 Y Y Y Y 5 5 E T : ",
">.4.9.4.+.b.[.[.|.4.f.f.f.f.9.4.+.+.$.7.[.[.5.5.J J J W W W W *.+.5.W r s s s s B B B B U H G H k k j m l q p p g g h g f | o z ",
"9.p.q.q.d.f.0.4.4.c.3.c.$.$.9.$. . .4.c.9.0.0.0.+.+.+.e.e.e.e.4.f.4.r.C U P P 2 2 2 2 2 F F F H m s B B B E F F 2 U U U G G F @."};
