/* XPM */
static char * stone_bricks_v2_xpm[] = {
"64 64 198 2",
"  	c #DEDEDE",
". 	c #CFCFCF",
"+ 	c #CBCBCB",
"@ 	c #C8C8C8",
"# 	c #CCCCCC",
"$ 	c #CDCDCD",
"% 	c #D2D2D2",
"& 	c #D0D0D0",
"* 	c #D5D5D5",
"= 	c #CECECE",
"- 	c #D3D3D3",
"; 	c #C4C4C4",
"> 	c #E5E5E5",
", 	c #8E8E8E",
"' 	c #8A8A8A",
") 	c #272727",
"! 	c #DADADA",
"~ 	c #D1D1D1",
"{ 	c #D4D4D4",
"] 	c #D6D6D6",
"^ 	c #D7D7D7",
"/ 	c #CACACA",
"( 	c #BFBFBF",
"_ 	c #868686",
": 	c #101010",
"< 	c #848484",
"[ 	c #C0C0C0",
"} 	c #A9A9A9",
"| 	c #A8A8A8",
"1 	c #A1A1A1",
"2 	c #A6A6A6",
"3 	c #AAAAAA",
"4 	c #BCBCBC",
"5 	c #A3A3A3",
"6 	c #9D9D9D",
"7 	c #A0A0A0",
"8 	c #9E9E9E",
"9 	c #999999",
"0 	c #B2B2B2",
"a 	c #989898",
"b 	c #898989",
"c 	c #4D4D4D",
"d 	c #7D7D7D",
"e 	c #D8D8D8",
"f 	c #C7C7C7",
"g 	c #A7A7A7",
"h 	c #A2A2A2",
"i 	c #9C9C9C",
"j 	c #9F9F9F",
"k 	c #A4A4A4",
"l 	c #7E7E7E",
"m 	c #373737",
"n 	c #080808",
"o 	c #939393",
"p 	c #858585",
"q 	c #7A7A7A",
"r 	c #797979",
"s 	c #7F7F7F",
"t 	c #818181",
"u 	c #828282",
"v 	c #777777",
"w 	c #545454",
"x 	c #343434",
"y 	c #878787",
"z 	c #909090",
"A 	c #7C7C7C",
"B 	c #808080",
"C 	c #838383",
"D 	c #8C8C8C",
"E 	c #949494",
"F 	c #787878",
"G 	c #4C4C4C",
"H 	c #2C2C2C",
"I 	c #363636",
"J 	c #464646",
"K 	c #282828",
"L 	c #9B9B9B",
"M 	c #7B7B7B",
"N 	c #585858",
"O 	c #2B2B2B",
"P 	c #E2E2E2",
"Q 	c #969696",
"R 	c #555555",
"S 	c #303030",
"T 	c #B3B3B3",
"U 	c #696969",
"V 	c #717171",
"W 	c #767676",
"X 	c #515151",
"Y 	c #2E2E2E",
"Z 	c #C6C6C6",
"` 	c #636363",
" .	c #737373",
"..	c #323232",
"+.	c #888888",
"@.	c #313131",
"#.	c #3E3E3E",
"$.	c #2F2F2F",
"%.	c #4E4E4E",
"&.	c #383838",
"*.	c #DBDBDB",
"=.	c #8D8D8D",
"-.	c #8B8B8B",
";.	c #494949",
">.	c #353535",
",.	c #757575",
"'.	c #676767",
").	c #959595",
"!.	c #292929",
"~.	c #747474",
"{.	c #B1B1B1",
"].	c #929292",
"^.	c #5F5F5F",
"/.	c #606060",
"(.	c #6D6D6D",
"_.	c #4A4A4A",
":.	c #3D3D3D",
"<.	c #404040",
"[.	c #5A5A5A",
"}.	c #2D2D2D",
"|.	c #262626",
"1.	c #595959",
"2.	c #484848",
"3.	c #525252",
"4.	c #4F4F4F",
"5.	c #535353",
"6.	c #505050",
"7.	c #4B4B4B",
"8.	c #3A3A3A",
"9.	c #3F3F3F",
"0.	c #2A2A2A",
"a.	c #3B3B3B",
"b.	c #5B5B5B",
"c.	c #565656",
"d.	c #252525",
"e.	c #434343",
"f.	c #050505",
"g.	c #0E0E0E",
"h.	c #222222",
"i.	c #D9D9D9",
"j.	c #333333",
"k.	c #212121",
"l.	c #393939",
"m.	c #242424",
"n.	c #090909",
"o.	c #121212",
"p.	c #000000",
"q.	c #BEBEBE",
"r.	c #DFDFDF",
"s.	c #C9C9C9",
"t.	c #E0E0E0",
"u.	c #979797",
"v.	c #BDBDBD",
"w.	c #9A9A9A",
"x.	c #ABABAB",
"y.	c #626262",
"z.	c #C5C5C5",
"A.	c #A5A5A5",
"B.	c #707070",
"C.	c #3C3C3C",
"D.	c #ACACAC",
"E.	c #616161",
"F.	c #5C5C5C",
"G.	c #575757",
"H.	c #8F8F8F",
"I.	c #919191",
"J.	c #0C0C0C",
"K.	c #111111",
"L.	c #5D5D5D",
"M.	c #5E5E5E",
"N.	c #414141",
"O.	c #161616",
"P.	c #474747",
"Q.	c #454545",
"R.	c #0A0A0A",
"S.	c #202020",
"T.	c #424242",
"U.	c #686868",
"V.	c #232323",
"W.	c #DCDCDC",
"X.	c #444444",
"Y.	c #ADADAD",
"Z.	c #727272",
"`.	c #6C6C6C",
" +	c #191919",
".+	c #141414",
"++	c #0B0B0B",
"@+	c #070707",
"#+	c #1E1E1E",
"$+	c #C3C3C3",
"%+	c #6B6B6B",
"&+	c #DDDDDD",
"*+	c #6E6E6E",
"=+	c #6F6F6F",
"-+	c #0F0F0F",
";+	c #151515",
">+	c #1A1A1A",
",+	c #171717",
"  . + @ # #   . $ $ # # # # # # # # $ % & * = - = & ; = > , ' ) . ! ~ = # $ & - - % + + # = & { ] ^ # & / = $ @ ~ . ( / _ : ) < ",
"[ } | 1 2 3 4 } 5 5 5 5 5 5 5 5 5 5 6 7 8 6 9 6 8 7 0 / a b c d e f g h 6 i j 1 j i g g k j 6 8 j 8 a 7 j | | j k 1 3 l m n b # ",
"0 a o p l q b r r s l l l l l l l l t < p s t u < u v p < w x y ~ k z ' p < _ y < t v A B C D 9 1 5 2 } 1 1 E B l F t G H I # . ",
"h y b t B q ' d l u B B B B B B B B q d u q u s t v D s B J K L @ 1 u s A M d l d A u < u M q s t l M l q C t r p b q N I O / P ",
"Q d F A C B z p C B B B B B B B B B _ < p F p p ' l v q t R S T / k u u u u C C < < u _ < d d C < B p p A B v U V W < X H Y Z { ",
"i _ s C _ r p l B l t t t t t t t t _ A W `  .F < M l b M X ..@ ] i l s t t B s s B +.D b B d t t M M s d +.C W s < s c @.#.$ - ",
"g d C s A l s l s C M l B B C _ u M l C B d B l M t s < l X $.% & 7 B u s t s a p s l t t s s u u B B l l t t s s t 7 %.&.H = *.",
"k d C C C _ b y B r B u u t < +._ t < p l d < p u p s < l X $.% & 7 l B s t A , s s _ s M l l M M s l t y =.-.< B B l ;.>.@.] [ ",
"7 B q A A M l B ,.'.B B s l s C C B M s A M B l M B s < l X $.% & 7 s l t t q < q t )._ s _ y B s _ p u B B d q M s s R O !.{ k ",
"6 < < +.C M A C s ~.d d d d l s s l d _ _ < p t l p s < l X $.% & 7 C A u t d t q C ' B q l u s d d E ' B l l s t p R ;.Y >.+ E ",
"9 +.y =.' s d p y u s B C p p u t t u B v W B C B u s < l X $.% & 7 C q t d t u A C s s d M t y < q +.s q s _ p s M r R !.x / {.",
"].y q u p s M l B l B t < +.y u B u C ~.^./.W u l M s < l X $.% & 7 t q < q t t l s l p _ t p z D s d  .(.~.d B d q =.N ) ..= ; ",
"+.t s t < < C u t t s s t < u l d t p s V V B _ C C s < l X $.% & 7 s s , A t s B l M s s A l u t M y l F q s u p +._.:.I <.= g ",
"t A < s A s B s s t t s B u B A l C v p ' y C M q C s < l X $.% & 7 s p a s t s u B p t B t B d d B B s u p C d q M _ [.}.|.$ 1 ",
"%.R N ;.1.2.3.4.c 5.6._ F u t l y u < C u u B d d t F /.7.;.8.d $ 8 C s B C C s l t y B A d y q X 4.c X r p C y q t G >.@.H C p ",
"9.) O 0.>.@.Y I H x }.3.N a.1.%.2.G 6.c ;._.4.R R 5.R J R @.@.>.y R 4.G c 6.X %.%.X 6.J b.c._.c.X 7.5.c.6.c 7._.3.c.d.e.f.g.8.h.",
"& i.% . + ! % @ l X j.k.:...S 0.l.$.S x >.@.S S H m.I !.&.n.o.p.;.}...S S ....S S ..>.d.>.....x }.>.0.#.K H &.$...|.a.|.y p q.r.",
"f % - - s.@ @ i.& s.+ i.i A &.O u v / * i.~ # ~ ^ e . { - ~ - $ t.~ % ~ & & . = $ = = ^ = 1 F j.j.B < ( % e *.$ . e $ s.~ % ! = ",
"5 u.u.1 3 1 k 8 2 1 g L l |.s ^ v.*.* & ( g 9 w.8 j 9 5 ).k j k w.9 5 5 h 1 7 1 h h Q k j d 1.Y ,.. i.*.& ( & = h ).h x.7 h 9 9 ",
"u u < s d W p v < v v F y.&.z.g | 8 u.D t l C +._ u y b C M A q l b d s l A d t C u y A t M 3.c.{ * a 6 A.+.u b q z M s B.r l b ",
"W C M t s _ < W y -.].;.2.l.] Q a B p A q t _ t M q r l D C ' s l s t C u d d t C t d l ' ' C.@.# 8 B s t M q M r l s u =.C M u ",
"q u C W N r t < B v d 6.3.0.. D.t A C l l C s M ' j p t d r q _ t C b ' y B l B B d C < ,.< 3.l.~ 1 B u q ' +.d +.M s s s d u p ",
"A t r b B.D y l q b B %.%.O - A.A l s M B E.r M D r +.s C s B u M B t A _ s B.F.s _ C t l t %.@.# 5 s l l l B w.d < s G.6.A t < ",
"C +.s -.-. .t C s M r %.G.I ~ w.M C C B s ,.s t y B s A C l s p B < u q r p ' A B  .A u l u 4.:.& i l b l M H.d ' F t F r +.q B ",
"F A +.F r p M A ^.B y _.2.$.. 6 u C B B l < t u l t t C ' B A < l t u +.A _ < d u b A +.l C 4.;.e 8 M y l q b ,.p r d t +.-.q l ",
"B. .u d 8 v I.q C q b J #.}.- j _ l l B < < C l s s C y H.u A C l s s o t < W ,.B 8 B b A C 7.J ^ A.d d u B F b W , t F M p C d ",
"M l v =._ D v A C s r 7.;.l.^ a t A B C z A y d +.l A B ' B A < s u s =.F < u C d _ s u M < G &.$ k t B < < r b M w.+.l A l y d ",
"s < B W q v M w s s B c.#.|.- 9 C B s B z ~._ r b A l A p s A l F d t p W t p C s r l l t _ R ..# 1 s _ l d p U < ' M < y v u d ",
"q s A =.u l E.t y M M c.!.J.& 7 y t s d p q C q u d _ A u t s M V r t t s l d v _ s u d C W w S - j d C A A u /.,.q v s < F ' l ",
"d u _ ,.C p ,.p M B 3.7.H K.{ 6 B s < l l y _ B d < p F l < < s W B t q t B C q D F C q A L.J !.e i u d C _ W v M.A b M d u 8 s ",
"N.N G 6.X 4.6.5.X c 3.%.>.O., F.P.1.5.%.R _.w _.3.%.4.3.G.4.R ;.%.R 4.5.R 3.6.X 3.6.c G.3.c.7.$.M 3 3.c M.v s s t B ' s F p A v ",
"Q.5.N 4.G 5.N 4.N.m ) ..|.R.N.S K $.S $.}.$.Y @.Y }.>.$.}.$.!.C.S O Y S Y O 0.Y S $.I S.@.K S $.T.U.6.P.G c.5.4.X X P.6.b.3.4.R ",
"J O ..H !.K V.0.4.v % i.] . # % - * . @ D.h B ,.G.%.n.n l.q +.= # ~ = ~ - - * ] % $ & W.s.i.+ <  .X.l.m X.3.3.6.3.6.b.2.%.Q.3.R ",
"( { $ # - W.e # Z s.% s.Z { / / s.. $ $ f % % ! ~ . +.x ~.^ % s.L x.8 6 w.6 3 q.= * & @ . + & % / + $ $ ^ W.{ . = s.q $.C.' . ; ",
"D.L A.h 6 L 8 k g g h 7 7 5 x.j L 5 Y.A.k i h a E ' 2.c i.= a k 6 i g 2 h 6 6 1 5 h 6 L | 5 h x.6 5 h 8 8 L ).i g | L...W = & 2 ",
"b r F < b B v W q A v -.].M +.s t B l F B F b B _ l 1.j.@ | p u s +.r l t s l l d M p -.V t _ H.h i 2 7 w.D l l t r Q.|.y v.h , ",
"F 1._ d v l +.-.< A F < -.q M d C M u B t s u B B l %.j.* 9 F p p ].| 5 ).C q t , a L d b q W Q Z.+.A d u B d p _ q 7.<.{ i.1 F ",
"s r B d t y u v q _ -.F M _ M u b s s C M < r C A t w Y ~ 7 B y W -.r t _ u d A B C u s r p A < F s u t B A A ' I._ 3.H . z.g A ",
"l t l C s < ,.< t A B B < C d t p s s 5.t s l b t B X @.+ 6 d A l u d _ d ,.u < l u t M M u C l s _ l u t v t < F _ X }.# 5 8 C ",
"l t s A u < y < v F.C B u t A t p s C V +.t q F C s 4.Y + h +._ t l p l C /.p Z._ < u p _ C t B s l 1. .y t p _ v A 5.$.$ 5 6 < ",
"l t C t =.A s r p r u s t t d B s ~.s < p t p v b t 6.$.$ 3 E ]._ d s C l F t t B u V d C l A t u d v B C W u E b _ 5.S = 1 L C ",
"l t W B E -.< s ' C B d u < B s F U l t d B u._ p l 6.$.$ } ].z _ d A p A b l b A B U.~.l s d B u u C t u M C =.l v 4.$.. 1 w.u ",
"l t C < s t W < t r t l t u B t d B.< A B l a +.v s %.Y + 1 p C s d p A C W B v p t q d p ' p d d C u d ' _ M F r -.c S % 5 L < ",
"l t +.y F W y.q B < p s s l A < ' C B A _ M D B v y 3.j.= 7 s d s u u l t y l s t B < t p D +.d A < p  .l C A A _ L c ..{ k L p ",
"l t V d b y F A t B C s B l A < D b M +.p q p M u W 5.x & h u B t < d C d j q =.q d s s t C u B B u ~.` ~.< p _ l q %...% j ).u ",
"l t p l p r t t ' M d l C C l u _ B u L < A y q _ 3.c $.# 7 u s d d p M C b d A C s s < C d d u C d _ F < t ,.l C < c S = a , d ",
"#.N G._.;.w R 7.G N 4.3.G G 5.4.c.G G 4.6.%.6.5.6._.4.m `.Y.s q +.l A l t C u s d l p  .+.C s B ' M < s l u u  .F._.>...8 d 3.w ",
"G 3.c G.1.3.4.5.4.Q.w N 2.R 3.c %.N 5.w X %.4.%.J :.$. +9.Z.4.c w ;.3.X 6.4.%.%.6.5.3.X R 9.w 4.7.R G %.4.X 5.X X.I H  +j.3.X e.",
"#.0.Y !.) H $.$.S ..S.x $.$.&.Y Y S 0.O H $.x I ..H J.p..+&.H ..&.......S $.$.S ....@...H #.N.}.V.x Y j.j.S @.I j.O j.V.++S x H ",
"; % % & ^   z.< &.@+>., $ + ] f - = - { { % ~ & . = ^ ~ ~ ] . . $ s./ $ . . & & $ s.$ ] l #+n @.*.# = . . $ # $ . ~ . s.+ * ~ $+",
"| 1 6 5 j 9 h j B.m -.v.2 } ' x.h A.8 7 1 8 9 a 8 A.7 k 1 w.8 j 5 2 7 5 5 h 5 2 5 8 2 d E.m >.$ 5 7 5 8 j k k 8 1 3 5 1 g 9 w.{.",
"_ ~.p C M F < p M.}.$ k w.M | +.L F A l u C t u D u.6 7 w.p _ A d s u t M ,.F B u l M _.7.x z.w.A.g < l d t u l A s  .b p < r F ",
"b t r q l p y ,.4.}.# Y.q Q %+B l _ _ C t t l q A t t C y r C A < p u t r V ~.l u d u M.3.V.&+L 6 F u C s M t b p q C y V B ' s ",
"d u R v ' B A q [.}.* 9 B B b B t %.B M r s C t B B t d < q p A < t u C l F M < < d q 6.%.&.+ 1 A.s q p t v p 8 i p M C C l u s ",
"t s t d B A < < G.@.~ j d ' d s l t p s l B C j C A t M u s l t d y M < s B d q < t < %.6.@.$ 1 A.d ,.E.q s < s C t y l < s B B ",
"u t < A B l u q %.Y # 8 C o _ p d A B A _ r A _ B u < M t s s B v A < u F s p u p A B c X j.. j h s '  .< B t A B s A ,.s d B B ",
"< C C M t t < q 6.x & j l b A B l B B M -.F B r B C W *+v M C +.t p d C B _ s  .d u s c X x ~ 6 j u b W < d t d B t v V d d t t ",
"t s u d u l C l 5...- 7 M u ,.d s C u d C d p s s A u q B s B t r s q u u _ F U.v < u X 6...- 8 6 C s ~.< d _ u t B l W B s t B ",
"l d t t < r l s 3.K = 7 t ' d C s d u p A C d u l d < s _ t d s d +.< B W l B F s s t w 4.Y { 1 6 u < l b M _ C l l < M u l B s ",
"p < l s < A t t c.S & 1 l C W B B B < o u +.W t < p M r C B s < y u.t C M t < t y u ,.w X 0.- k 6 t < t p B.l s d t C q t d s s ",
"b +.s q C u t ~.c I { h r r `.M t < < E y C d B p ~.y t +.u d l M y q _ C C t l u v ^.6.R !.~ k 6 B A l B U M B l C u r u s t B ",
"u t _ r u p r 1...0.. h l u ,.B t s s b t v +.B s w t q t B B u d p t p F q < p F 1.c G N 0.& 5 6 B A u _ =+u C A l C A p C < t ",
"5.%._.c 6.R Q.I Y -+6.A X 4.R X.F.c X 6.4.4.%.4.4.4.F._.c _.[.c.J c 4.6.6.6.6.4.c _.R X.&.x ,.R _.G.c 4.X 3.3.X X 3.R 6._.3.5.6.",
">.$.l.x S 8.Y ;+K.n.;+x 0.H j.O S ) @.S S $.S S @.@.>+#.Y l.!.}.C.I ....@.S S j.>.m Y ..h.,+&.x ) 0.>.j.$.H !.0.H Y 0.l.j.h.>..."};
